<svg xmlns="http://www.w3.org/2000/svg" viewBox="0 9.84000015258789 171.9499969482422 35.400001525878906" data-asc="0.89111328125" width="171.9499969482422" height="35.400001525878906"><defs/><g fill="#ffffff"><g transform="translate(0, 0)"><path d="M19.63 44.56L6.84 16.70L6.84 38.82Q6.84 41.87 7.50 42.63Q8.40 43.65 10.35 43.65L11.52 43.65L11.52 44.56L0 44.56L0 43.65L1.17 43.65Q3.27 43.65 4.15 42.38Q4.69 41.60 4.69 38.82L4.69 17.19Q4.69 14.99 4.20 14.01Q3.86 13.31 2.94 12.83Q2.03 12.35 0 12.35L0 11.45L9.38 11.45L21.39 37.35L33.20 11.45L42.58 11.45L42.58 12.35L41.43 12.35Q39.31 12.35 38.43 13.62Q37.89 14.40 37.89 17.19L37.89 38.82Q37.89 41.87 38.57 42.63Q39.48 43.65 41.43 43.65L42.58 43.65L42.58 44.56L28.52 44.56L28.52 43.65L29.69 43.65Q31.81 43.65 32.67 42.38Q33.20 41.60 33.20 38.82L33.20 16.70L20.43 44.56L19.63 44.56ZM50.88 9.84Q51.90 9.84 52.62 10.56Q53.34 11.28 53.34 12.30Q53.34 13.33 52.62 14.06Q51.90 14.79 50.88 14.79Q49.85 14.79 49.12 14.06Q48.39 13.33 48.39 12.30Q48.39 11.28 49.11 10.56Q49.83 9.84 50.88 9.84M52.91 21.53L52.91 39.50Q52.91 41.60 53.21 42.30Q53.52 42.99 54.11 43.33Q54.71 43.68 56.30 43.68L56.30 44.56L45.43 44.56L45.43 43.68Q47.07 43.68 47.63 43.36Q48.19 43.04 48.52 42.31Q48.85 41.58 48.85 39.50L48.85 30.88Q48.85 27.25 48.63 26.17Q48.46 25.39 48.10 25.09Q47.73 24.78 47.09 24.78Q46.41 24.78 45.43 25.15L45.09 24.27L51.83 21.53L52.91 21.53ZM78.08 36.06Q77.17 40.48 74.54 42.86Q71.90 45.24 68.70 45.24Q64.89 45.24 62.06 42.04Q59.23 38.84 59.23 33.40Q59.23 28.13 62.37 24.83Q65.50 21.53 69.90 21.53Q73.19 21.53 75.32 23.28Q77.44 25.02 77.44 26.90Q77.44 27.83 76.84 28.41Q76.25 28.98 75.17 28.98Q73.73 28.98 73.00 28.05Q72.58 27.54 72.45 26.10Q72.31 24.66 71.46 23.90Q70.61 23.17 69.09 23.17Q66.65 23.17 65.16 24.98Q63.18 27.37 63.18 31.30Q63.18 35.30 65.15 38.37Q67.11 41.43 70.46 41.43Q72.85 41.43 74.76 39.79Q76.10 38.67 77.37 35.72L78.08 36.06ZM87.84 9.84L87.84 26.20Q90.55 23.22 92.14 22.38Q93.73 21.53 95.31 21.53Q97.22 21.53 98.58 22.58Q99.95 23.63 100.61 25.88Q101.07 27.44 101.07 31.59L101.07 39.50Q101.07 41.63 101.42 42.41Q101.66 42.99 102.25 43.33Q102.83 43.68 104.39 43.68L104.39 44.56L93.41 44.56L93.41 43.68L93.92 43.68Q95.48 43.68 96.09 43.20Q96.70 42.72 96.95 41.80Q97.02 41.41 97.02 39.50L97.02 31.59Q97.02 27.93 96.64 26.78Q96.26 25.63 95.43 25.06Q94.60 24.49 93.43 24.49Q92.24 24.49 90.94 25.12Q89.65 25.76 87.84 27.69L87.84 39.50Q87.84 41.80 88.10 42.36Q88.35 42.92 89.05 43.30Q89.75 43.68 91.46 43.68L91.46 44.56L80.37 44.56L80.37 43.68Q81.86 43.68 82.71 43.21Q83.20 42.97 83.50 42.29Q83.79 41.60 83.79 39.50L83.79 19.26Q83.79 15.43 83.61 14.55Q83.42 13.67 83.04 13.35Q82.67 13.04 82.03 13.04Q81.52 13.04 80.37 13.43L80.03 12.57L86.72 9.84L87.84 9.84ZM118.95 41.33Q115.50 43.99 114.62 44.41Q113.31 45.02 111.82 45.02Q109.50 45.02 108.00 43.43Q106.49 41.85 106.49 39.26Q106.49 37.62 107.23 36.43Q108.23 34.77 110.71 33.30Q113.18 31.84 118.95 29.74L118.95 28.86Q118.95 25.51 117.88 24.27Q116.82 23.02 114.79 23.02Q113.26 23.02 112.35 23.85Q111.43 24.68 111.43 25.76L111.47 27.17Q111.47 28.30 110.90 28.91Q110.33 29.52 109.40 29.52Q108.50 29.52 107.92 28.88Q107.35 28.25 107.35 27.15Q107.35 25.05 109.50 23.29Q111.65 21.53 115.53 21.53Q118.51 21.53 120.41 22.53Q121.85 23.29 122.53 24.90Q122.97 25.95 122.97 29.20L122.97 36.79Q122.97 39.99 123.10 40.71Q123.22 41.43 123.50 41.67Q123.78 41.92 124.15 41.92Q124.54 41.92 124.83 41.75Q125.34 41.43 126.81 39.97L126.81 41.33Q124.07 45.00 121.58 45.00Q120.39 45.00 119.68 44.17Q118.97 43.33 118.95 41.33M118.95 39.75L118.95 31.23Q115.26 32.69 114.18 33.30Q112.26 34.38 111.43 35.55Q110.60 36.72 110.60 38.11Q110.60 39.87 111.65 41.03Q112.70 42.19 114.06 42.19Q115.92 42.19 118.95 39.75ZM132.23 30.62Q132.20 35.60 134.64 38.43Q137.08 41.26 140.38 41.26Q142.58 41.26 144.20 40.05Q145.83 38.84 146.92 35.91L147.68 36.40Q147.17 39.75 144.70 42.49Q142.24 45.24 138.53 45.24Q134.50 45.24 131.63 42.10Q128.76 38.96 128.76 33.67Q128.76 27.93 131.70 24.72Q134.64 21.51 139.09 21.51Q142.85 21.51 145.26 23.99Q147.68 26.46 147.68 30.62L132.23 30.62M132.23 29.20L142.58 29.20Q142.46 27.05 142.07 26.17Q141.46 24.80 140.25 24.02Q139.04 23.24 137.72 23.24Q135.69 23.24 134.09 24.82Q132.50 26.39 132.23 29.20ZM158.35 9.84L158.35 39.50Q158.35 41.60 158.65 42.29Q158.96 42.97 159.59 43.32Q160.23 43.68 161.96 43.68L161.96 44.56L151.00 44.56L151.00 43.68Q152.54 43.68 153.10 43.36Q153.66 43.04 153.98 42.31Q154.30 41.58 154.30 39.50L154.30 19.19Q154.30 15.41 154.13 14.54Q153.96 13.67 153.58 13.35Q153.20 13.04 152.61 13.04Q151.98 13.04 151.00 13.43L150.59 12.57L157.25 9.84L158.35 9.84ZM169.24 39.82Q170.39 39.82 171.17 40.61Q171.95 41.41 171.95 42.53Q171.95 43.65 171.15 44.45Q170.36 45.24 169.24 45.24Q168.12 45.24 167.32 44.45Q166.53 43.65 166.53 42.53Q166.53 41.38 167.32 40.60Q168.12 39.82 169.24 39.82Z"/></g></g></svg>